<?xml version="1.0" encoding="UTF-8"?>
<svg id="Layer_2" data-name="Layer 2" xmlns="http://www.w3.org/2000/svg" viewBox="0 0 225.32213 272.21508">
  <defs>
    <style>
      .cls-1 {
        fill: #083044;
      }

      .cls-1, .cls-2 {
        stroke-width: 0px;
      }

      .cls-2 {
        fill: #007be5;
      }
    </style>
  </defs>
  <g id="Logo">
    <g>
      <path class="cls-2" d="m133.5325,19.57996L114.83905.88652c-1.18203-1.18202-3.08639-1.18202-4.26841,0l-18.67155,18.67155c-1.18202,1.18202-1.18202,3.08639,0,4.26841l18.69344,18.69344c1.18202,1.18202,3.08639,1.18202,4.2684,0l18.67156-18.67155c1.18203-1.18202,1.18203-3.08639,0-4.26841Z"/>
      <path class="cls-2" d="m133.46683,248.38859l-18.69345-18.69345c-1.18203-1.18203-3.08639-1.18203-4.26841,0l-18.67155,18.67156c-1.18202,1.18203-1.18202,3.08638,0,4.26841l18.69344,18.69345c1.18202,1.18203,3.08639,1.18203,4.26842,0l18.67155-18.67156c1.18201-1.20391,1.18201-3.10829,0-4.26841Z"/>
      <path class="cls-1" d="m225.27045,135.22101c-.74424-16.46074-9.47805-33.40304-26.39846-50.32345l-32.2429-32.2429c-5.07832-5.07831-10.02529-8.09903-15.60705-7.85825-5.4942.24078-10.87897,3.69929-16.87663,9.69695-25.06322,24.97566-49.68866,49.51354-74.64244,74.64243-5.64743,5.64743-4.46541,9.71884,2.88939,17.07364l10.48496,10.48497c1.29147,1.29147,3.41473,1.26958,4.74998-.06567l71.09636-71.09637c1.05068-1.05068,2.0576-1.4228,2.88939-1.44469.85369-.02189,1.68548.28456,2.40782,1.0288l22.32706,22.32706c9.04027,9.04028,13.85591,17.27064,15.25683,24.77866.17511.94124.30646,1.90437.37212,2.84561.56912,7.94581-2.75804,15.54139-9.93774,22.93996-.19701.19701-.37212.4159-.56912.6129l-55.53311,55.5331c-1.31336,1.31336-1.35714,3.4585-.06567,4.74998l18.29943,18.29944c1.29147,1.29147,3.41472,1.26959,4.74998-.06568l55.5331-55.5331c14.24991-14.22803,21.56094-29.87886,20.8167-46.38338h0Z"/>
      <path class="cls-1" d="m.05168,136.95027c.74424,16.46074,8.33981,32.26479,25.26023,49.18521l33.35926,33.35925c5.07832,5.07832,10.02529,8.12093,15.60705,7.85824,5.49421-.24078,10.87897-3.69929,16.87663-9.69695,25.06323-24.97566,49.68867-49.51355,74.64244-74.64244,5.64743-5.64743,4.46542-9.71884-2.88939-17.07364l-10.46307-10.46307c-1.29147-1.29147-3.41472-1.26958-4.74998.06567l-71.09638,71.09638c-1.05068,1.05068-2.05759,1.4228-2.88939,1.44469-.85368.02188-1.68548-.28456-2.40782-1.0288l-23.44341-23.44341c-9.04027-9.04027-12.73956-16.1324-14.14047-23.64042-.17511-.94124-.30645-1.90437-.37212-2.84561-.56912-7.94581,2.75805-15.54139,9.93773-22.93996.197-.19701.37212-.4159.56912-.6129l55.53309-55.5331c1.31336-1.31336,1.35714-3.45851.06567-4.74997l-18.29944-18.29943c-1.29147-1.29147-3.41473-1.26958-4.74998.06567l-55.55498,55.5112C6.61847,104.79491-.69255,120.42386.05168,136.95027H.05168Z"/>
    </g>
  </g>
</svg>