<?xml version="1.0" encoding="utf-8"?>
<!-- Generator: Adobe Illustrator 27.0.0, SVG Export Plug-In . SVG Version: 6.00 Build 0)  -->
<svg version="1.1" id="Layer_1" xmlns="http://www.w3.org/2000/svg" xmlns:xlink="http://www.w3.org/1999/xlink" x="0px" y="0px"
	 viewBox="0 0 128 128" style="enable-background:new 0 0 128 128;" xml:space="preserve">
<style type="text/css">
	.st0{fill:#FFFFFF;}
	.st1{fill:#3BB76A;}
</style>
<g>
	<path class="st0" d="M126.21,59.71l-38.3-38.3c-1.12-1.11-2.64-1.74-4.21-1.73c-1.6-0.01-3.14,0.61-4.29,1.73l-7.45,7.52
		c-0.58,0.53-0.62,1.44-0.09,2.02c0.03,0.03,0.06,0.06,0.09,0.09l5.27,5.34c0.61,0.58,1.57,0.58,2.18,0l3.24-3.24
		c0.53-0.58,1.44-0.62,2.02-0.09c0.03,0.03,0.06,0.06,0.09,0.09l29.8,29.8c0.58,0.53,0.62,1.44,0.09,2.02
		c-0.03,0.03-0.06,0.06-0.09,0.09l-29.8,29.8c-0.53,0.58-1.44,0.62-2.02,0.09c-0.03-0.03-0.06-0.06-0.09-0.09l-29.8-29.8
		c-0.58-0.53-0.62-1.44-0.09-2.02c0.03-0.03,0.06-0.06,0.09-0.09l3.01-3.01c0.58-0.61,0.58-1.57,0-2.18l-5.34-5.27
		c-0.53-0.58-1.44-0.62-2.02-0.09c-0.03,0.03-0.06,0.06-0.09,0.09l-7.3,7.22c-2.34,2.35-2.34,6.15,0,8.5l38.3,38.3
		c1.14,1.14,2.68,1.79,4.29,1.81c1.59-0.02,3.1-0.67,4.21-1.81l38.3-38.3c2.35-2.29,2.39-6.06,0.1-8.41
		C126.28,59.78,126.24,59.74,126.21,59.71z"/>
	<path class="st1" d="M1.76,68.21l38.3,38.3c1.14,1.14,2.68,1.79,4.29,1.81c1.59-0.02,3.1-0.67,4.21-1.81l7.52-7.45
		c0.58-0.61,0.58-1.57,0-2.18l-5.34-5.27c-0.53-0.58-1.44-0.62-2.02-0.09c-0.03,0.03-0.06,0.06-0.09,0.09l-3.24,3.24
		c-0.53,0.58-1.44,0.62-2.02,0.09c-0.03-0.03-0.06-0.06-0.09-0.09l-29.8-29.8c-0.58-0.53-0.62-1.44-0.09-2.02
		c0.03-0.03,0.06-0.06,0.09-0.09l29.8-29.8c0.53-0.58,1.44-0.62,2.02-0.09c0.03,0.03,0.06,0.06,0.09,0.09l29.8,29.8
		c0.58,0.53,0.62,1.44,0.09,2.02c-0.03,0.03-0.06,0.06-0.09,0.09l-3.01,3.01c-0.58,0.53-0.62,1.44-0.09,2.02
		c0.03,0.03,0.06,0.06,0.09,0.09l5.27,5.34c0.61,0.58,1.57,0.58,2.18,0l7.22-7.3c2.35-2.29,2.39-6.06,0.1-8.41
		c-0.03-0.03-0.06-0.06-0.1-0.1l-38.3-38.3c-1.12-1.11-2.64-1.74-4.21-1.73c-1.6-0.01-3.14,0.61-4.29,1.73l-38.3,38.3
		C-0.59,62.06-0.59,65.86,1.76,68.21z"/>
</g>
</svg>
